<svg height="1838" width="720" xmlns="http://www.w3.org/2000/svg">
<rect height="1838" fill="#555" width="720"></rect>
<text fill="#7f7" font-family="Courier New" font-size="12" xml:space="preserve">
<tspan x="10" y="26">55 megabytes installed</tspan>
<tspan x="10" y="42"></tspan>
<tspan x="10" y="58">node_modules</tspan>
<tspan x="10" y="74">├── UNMET PEER DEPENDENCY grunt@&gt;=0.4.0</tspan>
<tspan x="10" y="90">└─┬ grunt-photobox@0.9.0 </tspan>
<tspan x="10" y="106">  ├─┬ filenamify@1.2.1 </tspan>
<tspan x="10" y="122">  │ ├── filename-reserved-regex@1.0.0 </tspan>
<tspan x="10" y="138">  │ ├─┬ strip-outer@1.0.0 </tspan>
<tspan x="10" y="154">  │ │ └── escape-string-regexp@1.0.5 </tspan>
<tspan x="10" y="170">  │ └── trim-repeated@1.0.0 </tspan>
<tspan x="10" y="186">  └─┬ phantomjs@1.9.20 </tspan>
<tspan x="10" y="202">    ├─┬ extract-zip@1.5.0 </tspan>
<tspan x="10" y="218">    │ ├─┬ concat-stream@1.5.0 </tspan>
<tspan x="10" y="234">    │ │ ├── inherits@2.0.3 </tspan>
<tspan x="10" y="250">    │ │ ├─┬ readable-stream@2.0.6 </tspan>
<tspan x="10" y="266">    │ │ │ ├── core-util-is@1.0.2 </tspan>
<tspan x="10" y="282">    │ │ │ ├── isarray@1.0.0 </tspan>
<tspan x="10" y="298">    │ │ │ ├── process-nextick-args@1.0.7 </tspan>
<tspan x="10" y="314">    │ │ │ ├── string_decoder@0.10.31 </tspan>
<tspan x="10" y="330">    │ │ │ └── util-deprecate@1.0.2 </tspan>
<tspan x="10" y="346">    │ │ └── typedarray@0.0.6 </tspan>
<tspan x="10" y="362">    │ ├── debug@0.7.4 </tspan>
<tspan x="10" y="378">    │ ├─┬ mkdirp@0.5.0 </tspan>
<tspan x="10" y="394">    │ │ └── minimist@0.0.8 </tspan>
<tspan x="10" y="410">    │ └─┬ yauzl@2.4.1 </tspan>
<tspan x="10" y="426">    │   └─┬ fd-slicer@1.0.1 </tspan>
<tspan x="10" y="442">    │     └── pend@1.2.0 </tspan>
<tspan x="10" y="458">    ├─┬ fs-extra@0.26.7 </tspan>
<tspan x="10" y="474">    │ ├── graceful-fs@4.1.11 </tspan>
<tspan x="10" y="490">    │ ├── jsonfile@2.4.0 </tspan>
<tspan x="10" y="506">    │ ├── klaw@1.3.1 </tspan>
<tspan x="10" y="522">    │ ├── path-is-absolute@1.0.1 </tspan>
<tspan x="10" y="538">    │ └─┬ rimraf@2.6.1 </tspan>
<tspan x="10" y="554">    │   └─┬ glob@7.1.1 </tspan>
<tspan x="10" y="570">    │     ├── fs.realpath@1.0.0 </tspan>
<tspan x="10" y="586">    │     ├─┬ inflight@1.0.6 </tspan>
<tspan x="10" y="602">    │     │ └── wrappy@1.0.2 </tspan>
<tspan x="10" y="618">    │     ├─┬ minimatch@3.0.3 </tspan>
<tspan x="10" y="634">    │     │ └─┬ brace-expansion@1.1.7 </tspan>
<tspan x="10" y="650">    │     │   ├── balanced-match@0.4.2 </tspan>
<tspan x="10" y="666">    │     │   └── concat-map@0.0.1 </tspan>
<tspan x="10" y="682">    │     └── once@1.4.0 </tspan>
<tspan x="10" y="698">    ├─┬ hasha@2.2.0 </tspan>
<tspan x="10" y="714">    │ ├── is-stream@1.1.0 </tspan>
<tspan x="10" y="730">    │ └─┬ pinkie-promise@2.0.1 </tspan>
<tspan x="10" y="746">    │   └── pinkie@2.0.4 </tspan>
<tspan x="10" y="762">    ├── kew@0.7.0 </tspan>
<tspan x="10" y="778">    ├── progress@1.1.8 </tspan>
<tspan x="10" y="794">    ├─┬ request@2.67.0 </tspan>
<tspan x="10" y="810">    │ ├── aws-sign2@0.6.0 </tspan>
<tspan x="10" y="826">    │ ├── bl@1.0.3 </tspan>
<tspan x="10" y="842">    │ ├── caseless@0.11.0 </tspan>
<tspan x="10" y="858">    │ ├─┬ combined-stream@1.0.5 </tspan>
<tspan x="10" y="874">    │ │ └── delayed-stream@1.0.0 </tspan>
<tspan x="10" y="890">    │ ├── extend@3.0.0 </tspan>
<tspan x="10" y="906">    │ ├── forever-agent@0.6.1 </tspan>
<tspan x="10" y="922">    │ ├─┬ form-data@1.0.1 </tspan>
<tspan x="10" y="938">    │ │ └─┬ async@2.3.0 </tspan>
<tspan x="10" y="954">    │ │   └── lodash@4.17.4 </tspan>
<tspan x="10" y="970">    │ ├─┬ har-validator@2.0.6 </tspan>
<tspan x="10" y="986">    │ │ ├─┬ chalk@1.1.3 </tspan>
<tspan x="10" y="1002">    │ │ │ ├── ansi-styles@2.2.1 </tspan>
<tspan x="10" y="1018">    │ │ │ ├─┬ has-ansi@2.0.0 </tspan>
<tspan x="10" y="1034">    │ │ │ │ └── ansi-regex@2.1.1 </tspan>
<tspan x="10" y="1050">    │ │ │ ├── strip-ansi@3.0.1 </tspan>
<tspan x="10" y="1066">    │ │ │ └── supports-color@2.0.0 </tspan>
<tspan x="10" y="1082">    │ │ ├─┬ commander@2.9.0 </tspan>
<tspan x="10" y="1098">    │ │ │ └── graceful-readlink@1.0.1 </tspan>
<tspan x="10" y="1114">    │ │ └─┬ is-my-json-valid@2.16.0 </tspan>
<tspan x="10" y="1130">    │ │   ├── generate-function@2.0.0 </tspan>
<tspan x="10" y="1146">    │ │   ├─┬ generate-object-property@1.2.0 </tspan>
<tspan x="10" y="1162">    │ │   │ └── is-property@1.0.2 </tspan>
<tspan x="10" y="1178">    │ │   ├── jsonpointer@4.0.1 </tspan>
<tspan x="10" y="1194">    │ │   └── xtend@4.0.1 </tspan>
<tspan x="10" y="1210">    │ ├─┬ hawk@3.1.3 </tspan>
<tspan x="10" y="1226">    │ │ ├── boom@2.10.1 </tspan>
<tspan x="10" y="1242">    │ │ ├── cryptiles@2.0.5 </tspan>
<tspan x="10" y="1258">    │ │ ├── hoek@2.16.3 </tspan>
<tspan x="10" y="1274">    │ │ └── sntp@1.0.9 </tspan>
<tspan x="10" y="1290">    │ ├─┬ http-signature@1.1.1 </tspan>
<tspan x="10" y="1306">    │ │ ├── assert-plus@0.2.0 </tspan>
<tspan x="10" y="1322">    │ │ ├─┬ jsprim@1.4.0 </tspan>
<tspan x="10" y="1338">    │ │ │ ├── assert-plus@1.0.0 </tspan>
<tspan x="10" y="1354">    │ │ │ ├── extsprintf@1.0.2 </tspan>
<tspan x="10" y="1370">    │ │ │ ├── json-schema@0.2.3 </tspan>
<tspan x="10" y="1386">    │ │ │ └── verror@1.3.6 </tspan>
<tspan x="10" y="1402">    │ │ └─┬ sshpk@1.13.0 </tspan>
<tspan x="10" y="1418">    │ │   ├── asn1@0.2.3 </tspan>
<tspan x="10" y="1434">    │ │   ├── assert-plus@1.0.0 </tspan>
<tspan x="10" y="1450">    │ │   ├── bcrypt-pbkdf@1.0.1 </tspan>
<tspan x="10" y="1466">    │ │   ├─┬ dashdash@1.14.1 </tspan>
<tspan x="10" y="1482">    │ │   │ └── assert-plus@1.0.0 </tspan>
<tspan x="10" y="1498">    │ │   ├── ecc-jsbn@0.1.1 </tspan>
<tspan x="10" y="1514">    │ │   ├─┬ getpass@0.1.6 </tspan>
<tspan x="10" y="1530">    │ │   │ └── assert-plus@1.0.0 </tspan>
<tspan x="10" y="1546">    │ │   ├── jodid25519@1.0.2 </tspan>
<tspan x="10" y="1562">    │ │   ├── jsbn@0.1.1 </tspan>
<tspan x="10" y="1578">    │ │   └── tweetnacl@0.14.5 </tspan>
<tspan x="10" y="1594">    │ ├── is-typedarray@1.0.0 </tspan>
<tspan x="10" y="1610">    │ ├── isstream@0.1.2 </tspan>
<tspan x="10" y="1626">    │ ├── json-stringify-safe@5.0.1 </tspan>
<tspan x="10" y="1642">    │ ├─┬ mime-types@2.1.15 </tspan>
<tspan x="10" y="1658">    │ │ └── mime-db@1.27.0 </tspan>
<tspan x="10" y="1674">    │ ├── node-uuid@1.4.8 </tspan>
<tspan x="10" y="1690">    │ ├── oauth-sign@0.8.2 </tspan>
<tspan x="10" y="1706">    │ ├── qs@5.2.1 </tspan>
<tspan x="10" y="1722">    │ ├── stringstream@0.0.5 </tspan>
<tspan x="10" y="1738">    │ ├── tough-cookie@2.2.2 </tspan>
<tspan x="10" y="1754">    │ └── tunnel-agent@0.4.3 </tspan>
<tspan x="10" y="1770">    ├─┬ request-progress@2.0.1 </tspan>
<tspan x="10" y="1786">    │ └── throttleit@1.0.0 </tspan>
<tspan x="10" y="1802">    └─┬ which@1.2.14 </tspan>
<tspan x="10" y="1818">      └── isexe@2.0.0</tspan>
</text>
</svg>
